<svg width="47" height="47" viewBox="0 0 47 47" fill="none" xmlns="http://www.w3.org/2000/svg">
<circle cx="23.5" cy="23.5" r="23.5" fill="#2476BA" fill-opacity="0.17"/>
<line x1="13" y1="17.1072" x2="35" y2="17.1072" stroke="#161616" stroke-width="1.5"/>
<ellipse cx="28.75" cy="14.6734" rx="0.75" ry="0.734703" fill="#161616"/>
<ellipse cx="30.75" cy="14.6734" rx="0.75" ry="0.734703" fill="#161616"/>
<ellipse cx="32.75" cy="14.6734" rx="0.75" ry="0.734703" fill="#161616"/>
<rect x="15" y="13.9387" width="6" height="1.46941" rx="0.734703" fill="#161616"/>
<path fill-rule="evenodd" clip-rule="evenodd" d="M14 12.5H34C34.2761 12.5 34.5 12.7239 34.5 13V31.5309C34.5 31.807 34.2761 32.0309 34 32.0309H31.9301C31.9757 32.1966 32 32.3711 32 32.5513C32 32.9081 31.9046 33.2427 31.7379 33.5309H34C35.1046 33.5309 36 32.6355 36 31.5309V13C36 11.8954 35.1046 11 34 11H14C12.8954 11 12 11.8954 12 13V31.5309C12 32.6355 12.8954 33.5309 14 33.5309H16.2621C16.0954 33.2427 16 32.9081 16 32.5513C16 32.3711 16.0243 32.1966 16.0699 32.0309H14C13.7239 32.0309 13.5 31.807 13.5 31.5309V13C13.5 12.7239 13.7239 12.5 14 12.5Z" fill="#161616"/>
<path d="M25.6001 24.393C26.5402 27.508 27.5663 30.5942 28.6791 33.654C28.9907 33.4633 29.3024 33.2725 29.614 33.0818C28.4039 32.1866 27.2471 31.6114 25.7143 31.6088C24.8007 31.6073 23.8837 31.7169 22.9844 31.8664C22.3756 31.9676 21.7718 32.0921 21.1765 32.2537C20.2844 32.4958 20.0445 32.8669 19.2964 32.2033C18.5963 31.5823 18.3022 30.5604 19.2941 29.7847C19.6015 29.5444 20.3774 29.4726 20.7592 29.3612C21.5232 29.1384 22.2694 28.9555 22.9274 28.5033C24.4151 27.4808 25.5446 25.8157 26.4204 24.2889C26.7811 23.66 25.7737 23.1329 25.4135 23.761C24.66 25.0746 23.7507 26.4273 22.5312 27.3767C21.4949 28.1834 20.1689 28.2776 18.9632 28.714C17.4078 29.277 17.2584 30.2621 17.6642 31.7602C17.9647 32.8692 18.6162 33.9405 19.8911 33.8148C21.346 33.6713 22.7656 32.9608 24.2645 32.813C26.0273 32.6391 27.3799 32.8241 28.8372 33.9021C29.2505 34.2078 29.9799 33.901 29.7721 33.3299C28.6593 30.27 27.6332 27.1839 26.6931 24.0689C26.4847 23.3784 25.3915 23.7018 25.6001 24.393Z" fill="#231F20"/>
<path d="M27.4638 27.5173C28.0928 27.3246 28.5085 27.6742 28.7264 28.2289C28.9764 28.8654 28.8697 29.3572 28.1871 29.6629C27.5218 29.9609 28.1361 30.9051 28.7968 30.6092C29.2852 30.3905 29.8131 29.9227 29.9951 29.4126C30.1864 28.8762 29.9556 28.2111 29.7405 27.7093C29.294 26.6671 28.2597 26.1013 27.1329 26.4466C26.4319 26.6614 26.7611 27.7327 27.4638 27.5173Z" fill="#231F20"/>
<path d="M20.7421 28.8639C21.0793 30.0208 21.4608 31.1625 21.8871 32.2907C22.1411 32.9628 23.2359 32.6433 22.9801 31.9666C22.5538 30.8383 22.1724 29.6966 21.8352 28.5398C21.6333 27.8472 20.5402 28.1712 20.7421 28.8639Z" fill="#231F20"/>
<path d="M20.1841 33.3587C20.4252 34.1386 20.6662 34.9186 20.9072 35.6985C21.1202 36.3875 22.2135 36.0644 22.0003 35.3743C21.7592 34.5944 21.5182 33.8145 21.2772 33.0345C21.0642 32.3456 19.9708 32.6686 20.1841 33.3587Z" fill="#231F20"/>
</svg>
