<svg width="47" height="47" viewBox="0 0 47 47" fill="none" xmlns="http://www.w3.org/2000/svg">
<circle cx="23.5" cy="23.5" r="23.5" fill="#2476BA" fill-opacity="0.17"/>
<path d="M17.8526 14.4909C17.7745 14.4129 17.7125 14.3203 17.6703 14.2183C17.628 14.1163 17.6062 14.007 17.6062 13.8966C17.6062 13.7863 17.628 13.677 17.6703 13.575C17.7125 13.473 17.7745 13.3804 17.8526 13.3023C19.3277 11.8281 21.3279 11 23.4134 11C25.4989 11 27.4991 11.8281 28.9742 13.3023C29.0522 13.3804 29.1142 13.473 29.1564 13.575C29.1986 13.677 29.2204 13.7863 29.2204 13.8966C29.2204 14.007 29.1986 14.1163 29.1564 14.2183C29.1142 14.3203 29.0522 14.4129 28.9742 14.4909C28.8962 14.569 28.8035 14.6309 28.7015 14.6731C28.5996 14.7154 28.4903 14.7371 28.3799 14.7371C28.2695 14.7371 28.1602 14.7154 28.0583 14.6731C27.9563 14.6309 27.8636 14.569 27.7856 14.4909C26.6256 13.3322 25.053 12.6813 23.4134 12.6813C21.7738 12.6813 20.2012 13.3322 19.0412 14.4909C18.9632 14.569 18.8705 14.631 18.7686 14.6733C18.6666 14.7156 18.5573 14.7373 18.4469 14.7373C18.3365 14.7373 18.2272 14.7156 18.1252 14.6733C18.0233 14.631 17.9306 14.569 17.8526 14.4909ZM20.3348 15.3771C20.1903 15.5372 20.1129 15.7467 20.1186 15.9622C20.1242 16.1778 20.2126 16.3829 20.3653 16.5351C20.5181 16.6873 20.7235 16.7749 20.9391 16.7799C21.1547 16.7848 21.3639 16.7066 21.5234 16.5615C22.025 16.0609 22.7047 15.7797 23.4134 15.7797C24.1221 15.7797 24.8018 16.0609 25.3034 16.5615C25.4602 16.7193 25.6732 16.8084 25.8956 16.8093C26.0064 16.8094 26.1162 16.7876 26.2186 16.7451C26.3209 16.7025 26.4139 16.6402 26.492 16.5615C26.6485 16.4042 26.7363 16.1913 26.7363 15.9693C26.7363 15.7474 26.6485 15.5345 26.492 15.3771C26.0879 14.9726 25.608 14.6516 25.0797 14.4326C24.5515 14.2136 23.9852 14.1009 23.4134 14.1009C22.8416 14.1009 22.2753 14.2136 21.7471 14.4326C21.2188 14.6516 20.7389 14.9726 20.3348 15.3771ZM29.8268 25.4571V31.4673C29.8268 33.1683 29.1511 34.7996 27.9484 36.0023C26.7456 37.2051 25.1143 37.8807 23.4134 37.8807C21.7125 37.8807 20.0812 37.2051 18.8784 36.0023C17.6757 34.7996 17 33.1683 17 31.4673V25.4571C17 23.7562 17.6757 22.1249 18.8784 20.9222C20.0812 19.7194 21.7125 19.0437 23.4134 19.0437C25.1143 19.0437 26.7456 19.7194 27.9484 20.9222C29.1511 22.1249 29.8268 23.7562 29.8268 25.4571ZM28.1468 25.4571C28.1468 24.2018 27.6481 22.9978 26.7604 22.1101C25.8727 21.2224 24.6688 20.7237 23.4134 20.7237C22.158 20.7237 20.9541 21.2224 20.0664 22.1101C19.1787 22.9978 18.68 24.2018 18.68 25.4571V31.4673C18.68 32.7227 19.1787 33.9267 20.0664 34.8144C20.9541 35.7021 22.158 36.2007 23.4134 36.2007C24.6688 36.2007 25.8727 35.7021 26.7604 34.8144C27.6481 33.9267 28.1468 32.7227 28.1468 31.4673V25.4571ZM23.4134 22.5885C23.1906 22.5885 22.977 22.677 22.8194 22.8346C22.6619 22.9921 22.5734 23.2058 22.5734 23.4285V26.6205C22.5734 26.8433 22.6619 27.057 22.8194 27.2145C22.977 27.372 23.1906 27.4605 23.4134 27.4605C23.6362 27.4605 23.8498 27.372 24.0074 27.2145C24.1649 27.057 24.2534 26.8433 24.2534 26.6205V23.4285C24.2534 23.2058 24.1649 22.9921 24.0074 22.8346C23.8498 22.677 23.6362 22.5885 23.4134 22.5885Z" fill="black"/>
</svg>
