<svg width="47" height="47" viewBox="0 0 47 47" fill="none" xmlns="http://www.w3.org/2000/svg">
<circle cx="23.5" cy="23.5" r="23.5" fill="#2476BA" fill-opacity="0.17"/>
<g clip-path="url(#clip0_128_446)">
<path d="M14.7866 16.3C14.4932 16.3 14.1999 16.52 14.1999 16.8867C14.1999 17.2533 14.4932 17.4733 14.7866 17.4733C15.1532 17.4733 15.3732 17.18 15.3732 16.8867C15.4466 16.52 15.1532 16.3 14.7866 16.3ZM31.9466 14.1733H14.0532C12.9532 14.1733 12.0732 15.0533 12.0732 16.1533V31.7733C12.0732 32.8733 12.9532 33.7533 14.0532 33.7533H32.0199C33.1199 33.7533 33.9999 32.8733 33.9999 31.7733V16.1533C33.9266 15.1267 33.0466 14.1733 31.9466 14.1733ZM32.8266 31.8467C32.8266 32.36 32.4599 32.7267 31.9466 32.7267H14.0532C13.5399 32.7267 13.1732 32.36 13.1732 31.8467V28.84C13.3199 28.9867 13.5399 29.1333 13.6866 29.3533C13.9799 29.6467 14.2732 30.0133 14.7132 30.2333C14.8599 30.8933 15.4466 31.4067 16.1799 31.4067C16.9132 31.4067 17.4999 30.8933 17.6466 30.16C18.5999 29.4267 19.1866 28.18 19.6999 26.9333C20.0666 25.98 20.5066 25.0267 21.0199 24.5867C21.3132 25.0267 21.7532 25.32 22.2666 25.32C22.7799 25.32 23.2932 25.0267 23.5132 24.5867C23.8066 24.8067 24.0999 25.1 24.3932 25.32C24.8332 25.76 25.3466 26.2 25.9332 26.4933C26.1532 27.0067 26.6666 27.4467 27.3266 27.4467C28.0599 27.4467 28.6466 26.9333 28.7932 26.2733C29.6732 25.6867 30.1866 24.66 30.7732 23.6333C31.5066 22.24 32.0199 21.36 32.9732 21.14V31.8467H32.8266ZM15.7399 29.8667C15.7399 29.6467 15.8866 29.5 16.1066 29.5C16.3266 29.5 16.4732 29.6467 16.4732 29.8667C16.4732 30.0867 16.3266 30.2333 16.1066 30.2333C15.9599 30.2333 15.7399 30.0867 15.7399 29.8667ZM21.8266 23.78C21.8266 23.56 21.9732 23.4133 22.1932 23.4133C22.4132 23.4133 22.5599 23.56 22.5599 23.78C22.5599 24 22.4132 24.1467 22.1932 24.1467C22.0466 24.1467 21.8266 23.9267 21.8266 23.78ZM26.9599 25.8333C26.9599 25.6133 27.1066 25.4667 27.3266 25.4667C27.5466 25.4667 27.6932 25.6133 27.6932 25.8333C27.6932 26.0533 27.4732 26.2 27.3266 26.2C27.1799 26.2 26.9599 26.0533 26.9599 25.8333ZM32.8266 19.8933C31.1399 20.1133 30.4066 21.6533 29.6732 23.0467C29.3066 23.78 28.9399 24.5133 28.4266 25.0267C28.1332 24.66 27.7666 24.44 27.2532 24.44C26.6666 24.44 26.2266 24.7333 25.9332 25.2467C25.6399 25.0267 25.3466 24.8067 25.0532 24.5133C24.6132 24.0733 24.0999 23.6333 23.5132 23.34C23.2932 22.7533 22.7799 22.3133 22.1199 22.3133C21.4599 22.3133 20.9466 22.7533 20.7266 23.34C19.6999 23.78 19.1132 25.1 18.5266 26.4933C18.0866 27.4467 17.7199 28.4 17.1332 28.9867C16.9866 28.62 16.6199 28.4 16.1799 28.4C15.6666 28.4 15.2266 28.6933 14.9332 28.9867C14.7866 28.84 14.6399 28.6933 14.4932 28.5467C14.1266 28.1067 13.6866 27.74 13.1732 27.5933V19.6H32.8999V19.8933H32.8266ZM32.8266 18.5H13.1732V16.1533C13.1732 15.64 13.5399 15.2733 14.0532 15.2733H32.0199C32.5332 15.2733 32.8999 15.64 32.8999 16.1533V18.5H32.8266ZM16.6932 16.3C16.3999 16.3 16.1066 16.52 16.1066 16.8867C16.1066 17.2533 16.3999 17.4733 16.6932 17.4733C17.0599 17.4733 17.2799 17.18 17.2799 16.8867C17.2799 16.52 17.0599 16.3 16.6932 16.3ZM18.5999 16.3C18.2332 16.3 18.0132 16.5933 18.0132 16.8867C18.0132 17.2533 18.3066 17.4733 18.5999 17.4733C18.9666 17.4733 19.1866 17.18 19.1866 16.8867C19.1866 16.52 18.8932 16.3 18.5999 16.3Z" fill="#161616"/>
</g>
<defs>
<clipPath id="clip0_128_446">
<rect width="22" height="22" fill="white" transform="translate(12 13)"/>
</clipPath>
</defs>
</svg>
