<svg width="47" height="47" viewBox="0 0 47 47" fill="none" xmlns="http://www.w3.org/2000/svg">
<circle cx="23.5" cy="23.5" r="23.5" fill="#2476BA" fill-opacity="0.17"/>
<path d="M12.0413 29.5183C12.1073 29.412 12.2127 29.4046 12.3603 29.4981C15.6933 31.4323 19.3215 32.4003 23.2411 32.4003C25.8555 32.4003 28.4368 31.9117 30.9842 30.9382L31.273 30.8099C31.3995 30.7549 31.4875 30.7182 31.5416 30.6907C31.7487 30.6101 31.8991 30.6486 32.0228 30.8099C32.1328 30.9694 32.1053 31.1179 31.9128 31.2499C31.6781 31.424 31.3628 31.6257 30.9906 31.8494C29.8503 32.5305 28.5706 33.0557 27.1544 33.4315C25.7519 33.8037 24.3631 33.9907 23.0147 33.9907C20.9385 33.9907 18.9722 33.6277 17.116 32.9026C15.2643 32.1748 13.6143 31.1518 12.1385 29.8318C12.0468 29.764 12.001 29.6943 12.001 29.6301C12.001 29.587 12.0193 29.5476 12.0468 29.511L12.0413 29.5183ZM18.0592 23.8185C18.0592 22.8972 18.2856 22.1107 18.7403 21.4562C19.1941 20.8054 19.8128 20.3104 20.6103 19.9758C21.34 19.6687 22.22 19.4487 23.2796 19.3158C23.6371 19.2736 24.2266 19.2214 25.0396 19.1563V18.8171C25.0396 17.9646 24.9434 17.389 24.7646 17.0984C24.4878 16.7042 24.0496 16.5025 23.4446 16.5025H23.2778C22.8378 16.5447 22.4565 16.6822 22.1356 16.9242C21.8148 17.1717 21.6086 17.5017 21.5169 17.9289C21.4619 18.2039 21.3281 18.3551 21.1181 18.3964L18.8081 18.1076C18.5808 18.0526 18.4671 17.9426 18.4671 17.7501C18.4671 17.708 18.4736 17.6676 18.4873 17.6126C18.7137 16.4301 19.2711 15.5501 20.1556 14.9726C21.0503 14.408 22.0806 14.0789 23.2631 14.0101H23.7581C25.2706 14.0101 26.4687 14.408 27.3221 15.1926C27.4459 15.3301 27.5696 15.4676 27.6934 15.6326C27.8034 15.7839 27.8987 15.9205 27.9528 16.0451C28.0216 16.168 28.0903 16.3476 28.1316 16.5676C28.1866 16.8005 28.2278 16.9526 28.2553 17.0351C28.2828 17.1305 28.3121 17.3101 28.325 17.5989C28.3341 17.8858 28.3433 18.0508 28.3433 18.1058V22.9458C28.3433 23.2905 28.3983 23.6058 28.4946 23.8955C28.5908 24.1824 28.6871 24.3905 28.7833 24.5133L29.2508 25.1311C29.3333 25.2558 29.3755 25.3658 29.3755 25.4611C29.3755 25.5711 29.3205 25.6683 29.2105 25.749C28.1105 26.7115 27.5055 27.234 27.4111 27.3165C27.2598 27.4402 27.0673 27.454 26.8336 27.3577C26.6548 27.2055 26.4898 27.0534 26.3514 26.903L26.0672 26.585C26.0122 26.5171 25.9151 26.3925 25.7766 26.2L25.5016 25.8012C24.7591 26.6134 24.0322 27.1212 23.3016 27.3275C22.8488 27.465 22.2997 27.5355 21.6241 27.5355C20.6066 27.5355 19.7541 27.2211 19.0941 26.5877C18.4341 25.9552 18.1041 25.0615 18.1041 23.8927L18.0583 23.823L18.0592 23.8185ZM21.4995 23.417C21.4995 23.9358 21.6278 24.352 21.8891 24.6673C22.1503 24.979 22.5078 25.1366 22.9478 25.1366C22.9891 25.1366 23.045 25.1302 23.1266 25.1183C23.2091 25.1036 23.2494 25.0972 23.2787 25.0972C23.8416 24.9505 24.2687 24.5903 24.5841 24.0174C24.7353 23.7607 24.8453 23.4857 24.9141 23.1832C24.9966 22.8899 25.0241 22.6424 25.0378 22.4499C25.0516 22.2711 25.0516 21.9549 25.0516 21.5286V21.0336C24.2816 21.0336 23.6912 21.0886 23.2916 21.1986C22.1228 21.5286 21.5316 22.2711 21.5316 23.4261L21.4995 23.4078V23.417ZM29.898 29.8584C29.9255 29.8034 29.9667 29.7576 30.019 29.7025C30.3508 29.4798 30.6735 29.3267 30.9815 29.2442C31.4856 29.1223 31.9806 29.0407 32.4591 29.0242C32.5875 29.0132 32.7158 29.0242 32.835 29.0517C33.4308 29.1067 33.7975 29.2057 33.9093 29.3542C33.9671 29.4367 33.9918 29.5632 33.9918 29.7117V29.8492C33.9918 30.3167 33.8635 30.8667 33.6114 31.4992C33.3566 32.1317 33.0027 32.6432 32.5517 33.0392C32.4848 33.0942 32.4234 33.1217 32.3711 33.1217C32.3436 33.1217 32.3161 33.1217 32.2886 33.1107C32.2061 33.0704 32.1906 33.0007 32.23 32.8907C32.725 31.7357 32.9688 30.9263 32.9688 30.4707C32.9688 30.3332 32.9413 30.2232 32.8891 30.1554C32.7561 30.0032 32.3849 29.9198 31.7671 29.9198C31.5443 29.9198 31.2785 29.9345 30.9696 29.962C30.6368 30.0032 30.3279 30.0445 30.0529 30.0857C29.9704 30.0857 29.9172 30.0729 29.8879 30.0454C29.8604 30.0179 29.8549 30.0023 29.8696 29.9748C29.8696 29.9592 29.8751 29.9473 29.8879 29.917V29.8621L29.898 29.8584Z" fill="#161616"/>
</svg>
