<svg width="47" height="47" viewBox="0 0 47 47" fill="none" xmlns="http://www.w3.org/2000/svg">
<circle cx="23.5" cy="23.5" r="23.5" fill="#2476BA" fill-opacity="0.17"/>
<g clip-path="url(#clip0_128_427)">
<path d="M31.0573 32.969L31.057 32.9687L30.557 32.3537L30.557 32.3537C30.4127 32.1761 30.2082 32.0577 29.9824 32.0207C29.7569 31.9838 29.5256 32.0308 29.3324 32.1528C29.3321 32.153 29.3319 32.1531 29.3317 32.1533L29.198 31.942L31.0573 32.969ZM31.0573 32.969C31.1408 33.0714 31.2018 33.1902 31.2363 33.3177C31.2708 33.4453 31.2781 33.5786 31.2576 33.7091C31.2371 33.8396 31.1893 33.9644 31.1174 34.0752C31.0454 34.186 30.951 34.2804 30.8401 34.3522L30.8396 34.3525M31.0573 32.969L30.8396 34.3525M30.8396 34.3525C29.271 35.3743 27.4856 36.0158 25.6255 36.226C23.7654 36.4361 21.8818 36.2091 20.1249 35.5631C18.3679 34.917 16.7861 33.8697 15.5052 32.5045C14.2243 31.1393 13.2799 29.494 12.747 27.6995C12.2141 25.905 12.1075 24.0108 12.4356 22.1678C12.7638 20.3248 13.5177 18.5839 14.6372 17.0836C15.7568 15.5833 17.2112 14.3651 18.8845 13.526C20.5579 12.6868 22.404 12.2499 24.276 12.25C31.0048 12.25 36.303 16.5086 36.302 23.077V23.077C36.302 24.9124 35.8011 26.6726 34.6655 27.9705C33.5351 29.2624 31.749 30.127 29.112 30.127C28.3559 30.127 27.6429 30.1245 27.0593 29.9289C26.5015 29.7421 26.0642 29.3795 25.8528 28.6218L25.7206 28.1481L25.4158 28.5341C24.9921 29.0706 24.4578 29.5096 23.8492 29.8211C23.2423 30.1318 22.5757 30.3084 21.8945 30.339C20.4915 30.3378 19.3766 29.8583 18.6101 29.0129C17.84 28.1636 17.398 26.9188 17.398 25.348C17.398 21.0525 20.4313 18.098 23.971 18.098H23.981L23.9909 18.0972C24.4984 18.0567 25.0087 18.1257 25.4873 18.2994C25.9659 18.4732 26.4016 18.7477 26.7649 19.1044L27.1309 19.4638L27.1884 18.954C27.2 18.8517 27.2488 18.7571 27.3257 18.6885C27.4025 18.6199 27.5019 18.582 27.6049 18.582H27.605H29.832C29.832 18.582 29.832 18.582 29.832 18.582C29.9703 18.582 30.1068 18.6127 30.2319 18.6716C30.3569 18.7306 30.4674 18.8166 30.5554 18.9232C30.6434 19.0299 30.7067 19.1548 30.7408 19.2888C30.7749 19.4228 30.7789 19.5627 30.7526 19.6984L30.7526 19.6985M30.8396 34.3525L30.7526 19.6985M30.7526 19.6985L29.5929 25.697C29.5928 25.6972 29.5928 25.6974 29.5927 25.6977L30.7526 19.6985ZM23.2043 27.32L23.2217 27.3197L23.239 27.3169C24.1428 27.1743 24.9606 26.6988 25.5317 25.984C26.1011 25.2712 26.3842 24.3719 26.326 23.4617C26.3246 22.792 26.1481 22.2255 25.7957 21.8224C25.4381 21.4134 24.9245 21.202 24.314 21.202C22.777 21.202 21.1718 22.7079 21.164 25.035C21.1269 25.3187 21.1505 25.6072 21.2331 25.8813C21.3175 26.161 21.4614 26.4192 21.6551 26.638C21.8487 26.8568 22.0875 27.0311 22.3549 27.1488C22.6223 27.2665 22.9121 27.3249 23.2043 27.32Z" fill="#161616" stroke="#DAE8F3" stroke-width="0.5"/>
</g>
<defs>
<clipPath id="clip0_128_427">
<rect width="24.553" height="24.553" fill="white" transform="translate(12 12)"/>
</clipPath>
</defs>
</svg>
